/* XPM */
static char *ffca26d55ba24766c9adb092cce576a1[] = {
/* columns rows colors chars-per-pixel */
"50 52 247 2 ",
"   c #EA7000",
".  c #EC7C0A",
"X  c #F67000",
"o  c #FC7500",
"O  c #F47F00",
"+  c #FD7B00",
"@  c #EE701F",
"#  c #D89817",
"$  c #EB8500",
"%  c #E48900",
"&  c #EC8B00",
"*  c #EA8E08",
"=  c #F48400",
"-  c #F98400",
";  c #F38C00",
":  c #FC8B00",
">  c #F38A0C",
",  c #E59500",
"<  c #EC9300",
"1  c #E59D00",
"2  c #ED9A00",
"3  c #E5930C",
"4  c #F49300",
"5  c #FF9500",
"6  c #F29C00",
"7  c #FE9C00",
"8  c #F29408",
"9  c #FF960C",
"0  c #FD9E08",
"q  c #E78317",
"w  c #E79E14",
"e  c #FF9C1F",
"r  c #DFA517",
"t  c #E6A400",
"y  c #EBA600",
"u  c #EBAA00",
"i  c #E6AA08",
"p  c #EEAB0C",
"a  c #F0A500",
"s  c #FEA300",
"d  c #F2AD00",
"f  c #FFAD00",
"g  c #FFA40C",
"h  c #F4AF08",
"j  c #FDAE0C",
"k  c #EEB100",
"l  c #EEB10C",
"z  c #F4B300",
"x  c #FBB500",
"c  c #F6B900",
"v  c #FDBC00",
"b  c #F4B40A",
"n  c #FFB30C",
"m  c #FFBF0C",
"M  c #E5A817",
"N  c #ECAF16",
"B  c #E8A51F",
"V  c #E6AA1F",
"C  c #EBAE1F",
"Z  c #FFA517",
"A  c #F6A817",
"S  c #FFAC17",
"D  c #FDA61F",
"F  c #ECB314",
"G  c #F3B317",
"H  c #FEB614",
"J  c #F5BA14",
"K  c #FCBE15",
"L  c #F3B31F",
"P  c #FDBC1F",
"I  c #FF9E3E",
"U  c #FFA825",
"Y  c #FFA829",
"T  c #EDB125",
"R  c #F1B125",
"E  c #FEB125",
"W  c #FDBD25",
"Q  c #F0B329",
"!  c #FFB829",
"~  c #E6A133",
"^  c #F4A838",
"/  c #ECB330",
"(  c #EFB833",
")  c #EEB63E",
"_  c #F1B533",
"`  c #F7BA33",
"'  c #F2B438",
"]  c #FFB638",
"[  c #F3B93B",
"{  c #FFBB3A",
"}  c #FFC500",
"|  c #FFCC00",
" . c #FFC50A",
".. c #FFC90C",
"X. c #FFD300",
"o. c #FFDB00",
"O. c #FFD708",
"+. c #FFC316",
"@. c #FFCB17",
"#. c #FEC31F",
"$. c #FFCD1F",
"%. c #FFD214",
"&. c #FFD917",
"*. c #FFD71F",
"=. c #FFE200",
"-. c #FFE608",
";. c #FFEC08",
":. c #FFE314",
">. c #FFED14",
",. c #FFE71F",
"<. c #FFC629",
"1. c #FFC929",
"2. c #FFD425",
"3. c #FFD629",
"4. c #FFD829",
"5. c #FDC331",
"6. c #FFC933",
"7. c #FEC43B",
"8. c #FFCB3B",
"9. c #FFDE33",
"0. c #FFD53A",
"q. c #FFDC38",
"w. c #FFE325",
"e. c #FFE331",
"r. c #FFEB32",
"t. c #FFE038",
"y. c #FFEA38",
"u. c #FFF530",
"i. c #FFFF32",
"p. c #D59F57",
"a. c #FF9D41",
"s. c #F2AC41",
"d. c #EDB546",
"f. c #FFBE44",
"g. c #F3BE4D",
"h. c #F5AE53",
"j. c #FFAE57",
"k. c #EAB551",
"l. c #EFBA51",
"z. c #F0B453",
"x. c #FCB454",
"c. c #FFBB57",
"v. c #F5B558",
"b. c #F0BC5F",
"n. c #FFBD5A",
"m. c #EDAC64",
"M. c #FFAE66",
"N. c #FEBE6C",
"B. c #FEC344",
"V. c #FFCB43",
"C. c #FFCB4D",
"Z. c #FFD344",
"A. c #FFDC41",
"S. c #FFD748",
"D. c #FFDB4D",
"F. c #FFC551",
"G. c #FFCB54",
"H. c #FBC658",
"J. c #FFC95C",
"K. c #FFD154",
"L. c #FFDC51",
"P. c #FFD35D",
"I. c #FFDD58",
"U. c #FFE646",
"Y. c #FFEF41",
"T. c #FFE748",
"R. c #FFEC4D",
"E. c #FFFC46",
"W. c #FFF44A",
"Q. c #FFE357",
"!. c #FFEB53",
"~. c #FFEE5B",
"^. c #FFF656",
"/. c #FFFD52",
"(. c #FFF35C",
"). c #FFFF58",
"_. c #F2C061",
"`. c #FCC264",
"'. c #FFC964",
"]. c #FEC36C",
"[. c #FFD066",
"{. c #FFDB66",
"}. c #FFD36E",
"|. c #FFDC6D",
" X c #FFCB74",
".X c #FFCC7B",
"XX c #FFD575",
"oX c #FFD870",
"OX c #FFD379",
"+X c #FFDA79",
"@X c #FFE162",
"#X c #FFE46D",
"$X c #FFEA69",
"%X c #FFF464",
"&X c #FFFE62",
"*X c #FFF26E",
"=X c #FFFE6D",
"-X c #FFE47F",
";X c #FFED7C",
":X c #FFF374",
">X c #FFFF72",
",X c #FFF679",
"<X c #FFFF7B",
"1X c #EEBF86",
"2X c #FFCB86",
"3X c #F5CD8D",
"4X c #FFD783",
"5X c #FFDD85",
"6X c #FFD789",
"7X c #FFD694",
"8X c #FFDC96",
"9X c #FFD49C",
"0X c #FFD89E",
"qX c #FFE580",
"wX c #FFEF8C",
"eX c #FFFF84",
"rX c #FFF48B",
"tX c #FFFD8C",
"yX c #FFE393",
"uX c #FFEF91",
"iX c #FFE69F",
"pX c #FFF393",
"aX c #FFFF93",
"sX c #FFF59C",
"dX c #FFFE9C",
"fX c #FFEEA5",
"gX c #FFEBAC",
"hX c #FFF3A1",
"jX c #FFFEA4",
"kX c #FFF1AA",
"lX c #FFFEAC",
"zX c #FFE8B1",
"xX c #FFF4B4",
"cX c #FFFFB4",
"vX c #FFF4BD",
"bX c #FFFFBB",
"nX c #FFF4C1",
"mX c #FFFFC4",
"MX c #FFF7CD",
"NX c #FFFFCB",
"BX c #FFF7D7",
"VX c #FFFFD3",
"CX c #FFFFDB",
"ZX c #FFFFE4",
"AX c #FFFFEC",
"SX c #FFFFF2",
"DX c None",
/* pixels */
"DXDXDXDXDXDXDXDXDXDXDXDXDXDXDXDXDXDXDXDXDXDXDXDXDXDXDXDXDXDXDXDXDXDXDXDXDXDXDXDXDXDXDXDXDXDXDXDXDXDX",
"DXDXDXDXDXDXDXDXDXDXDXDXDXDXDXDXDXDXDXDXDXDXDXDXDXDXDXDXDXDXDXDXDXDXDXDXDXDXDXDXDXDXDXDXDXDXDXDXDXDX",
"DXDXDXDXDXDXDXDXDXDXDXDXDXDXDXDXDXDXDXDXDXDXDXDXDXDXDXDXDXDXDXDXDXDXDXDXDXDXDXDXDXDXDXDXDXDXDXDXDXDX",
"DXDXDXDXDXDXDXDXDXDXDXDXDXDXDXDXDXDXDXDXDXDXDXDXDXDXDXDXDXDXDXDXDXDXDXDXDXDXDXDXDXDXDXDXDXDXDXDXDXDX",
"DXDXDXDXDXDXDXDXDXDXDXDXDXDXDXDXDXDXDXDXDXDXDXDXDXDXDXDXDXDXDXDXDXDXDXDXDXDXDXDXDXDXDXDXDXDXDXDXDXDX",
"DXDXDXDXDXDXDXDXDXDXDXDXDXDXDXDXDXDXDXDXDXDXDXDXDXDXDXDXDXDXDXDXDXDXDXDXDXDXDXDXDXDXDXDXDXDXDXDXDXDX",
"DXDXDXDXDXDXDXDXDXDXDXDXDXDXDXDXDXDXDXDXDXDXDXDXDXDXDXDXDXDXDXDXDXDXDXDXDXDXDXDXDXDXDXDXDXDXDXDXDXDX",
"DXDXDXDXDXDXDXDXDXDXDXDXDXDXDXDXDXDXDXDXDXDXDXDXDXDXDXDXDXDXDXDXDXDXDXDXDXDXDXDXDXDXDXDXDXDXDXDXDXDX",
"DXDXDXDXDXDXDXDXDXDXDXDXDXDXDXDXDXDXDXDXDXDXDXDXDXDXDXDXDXDXDXDXDXDXDXDXDXDXDXDXDXDXDXDXDXDXDXDXDXDX",
"DXDXDXDXDXDXDXDXDXDXDXDXDXDXDXDXDXDXDXDXDXDXDXDXDXDXDXDXDXDXDXDXDXDXDXDXDXDXDXDXDXDXDXDXDXDXDXDXDXDX",
"DXDXDXDXDXDXDXDXDXDXDXDXDXDXDXDXDXDXDXDXDXDXDXDXDXDXDXDXDXDXDXDXDXo.DXDXDXDXDXDXDXDXDXDXDXDXDXDXDXDX",
"DXDXDXDXDXDXDXDXDXDXDXDXDXDXDXDXDXDXDXDXDXDXDXDXDXDXDXDXDXDXDXDXDXDXX.DXDXDXDXDXDXDXDXDXDXDXDXDXDXDX",
"DXDXDXDXDXDXDXDXDXDXDXDXDXDXDXDXDX=.DXDXDXDXDXDXDXDXDXDXDXDXDXDXDXDXX.DXDXDXDXDXDXDXDXDXDXDXDXDXDXDX",
"DXDXDXDXDXDXDXDXDXDXDXDXDXDXDXDXDXDXDXDXDXDXDXDXDXDXDXDXDX| DXDXDXDXX.o.DXDXDXDXDXDXDXDXDXDXDXDXDXDX",
"DXDXDXDXDXDXDXDXDXDXDXDXDXDXDXDXDXDXDXDXDXDXDXDXDXDXDXDXDXDXDXDXDXDXX.=.X.DXDXDXDXDXDXDXDXDXDXDXDXDX",
"DXDXDXDXDXDXDXDXDXDXDXDXDXDXDXDXDXDXDXDXDXv DXDXDXDXDXDXDXDXDXDXDXDX| =.DXDXDXDXDXDXDXDXDXDXDXDXDXDX",
"DXDXDXDXDXDXDXDXDXDXDXDXDXDXDXDXDXDXDXDXDXDXx v DXDXDXDXDXDXDXDXDXDXDXDXDXDXDXDXDXDXDXDXDXDXDXDXDXDX",
"DXDXDXDXDXDXDXDXDXDXDXDXDXDXDXDX1 t t u DXDX} v DXDXDXDXDXDXDXDXDXDXDXDXDXDXDXDXDXDXDXDXDXDXDXDXDXDX",
"DXDXDXDXDXDXDXDXDXDXDXDXDXDXDXDXt t DXDXDXX.X.v k b z i DXDXd d x d DXv } DXDXDXDXDXDXDXDXDXDXDXDXDX",
"DXDXDXDXDXDXDXDXDXDXDXDXDXDXt t DXDXDXDXc | v } v 2 k k N p z z v z DXDX} | DXDXDXDXDXDXDXDXDXDXDXDX",
"DXDXDXDXDXDXDXDXDXDXDXDXDXDXt DXDXDXDXp v } M +.;.>.K C / / T C T b v | DX| } DXDXDXDXDXDXDXDXDXDXDX",
"DXDXDXDXDXDXDXDXDXDXDXDXDXd u DXu v v b b F B 2.i.i.u.5.k.l.) / ( W #.DXDX} v } DXDXDXDXDXDXDXDXDXDX",
"DXDXDXDXDXDXDXDXDXDXDXDXDXz z t u | m r J 5.0.E././.!.K.b._.g.[ [ 8.` +.c z } | DXDXDXDXDXDXDXDXDXDX",
"DXDXDXDXDXDXDXDXDXDXDXDXDXDXc u z G R P q.T.!.&X&X*XoX}.].].'.L.0.H.5.X.X.| X.X.| DXDXDXDXDXDXDXDXDX",
"DXDXDXDXDXDXDXDXDXDXDXDXDXDX} d b N _ { !.).=X,XeXtXrXwXeX<X,X&X).K.{ @...| } x | | DXDXDXDXDXDXDXDX",
"DXDXDXDXDXDXDXDXDXDXDXDXDXDXX.| N Q d.p.'.<XtXaXdXjXjXjXdXaXrXqX>X).S.` V J K DX| | DXDXDXDXDXDXDXDX",
"DXDXDXDXDXDXDXDXDXDXDXDXDXv } %.{ ' z.[.+XtXdXjXlXcXbXcXbXlXhX7X4X=X!.V.( 7.DXDX} | DXDXDXDXDXDXDXDX",
"DXDXDXDXDXDXDXDXDXDXDXDXDXDXH P 5.Z.@X:XrXjXlXbXmXNXNXNXmXbXcXkXyXqXXXI.q.7.DX@.X.| DXDXDXDXDXDXDXDX",
"DXDXDXDXDXDXDXDXDXDXDXDXDXDXH +.q.!.#X5XdXlXmXmXVXCXCXCXCXVXmXcXjXuX3X}.0.B.DXDXDXDXDXDXDXDXDXDXDXDX",
"DXDXDXDXDXDXDXDXDXDXDXDXDXD v *.A.~.OXyXjXbXNXCXCXZXZXZXCXCXNXmXlXdX6X}.C.DXDXDXDXDXDXDXDXDXDXDXDXDX",
"DXDXDXDXDXDXDXDXDXDXDXDXDXDX{ 7.x.@XeXsXlXmXVXCXZXAXAXAXAXZXBXNXbXjXtX,XL.].DXR DXDXDXDXDXDXDXDXDXDX",
"DXDXDXDXDXDXDXDXDXDXDXDXDXDXDX8.x.#XeXsXcXmXCXZXAXAXSXSXAXZXCXVXvXkXuX+XJ.{ DXDXj DXDXDXDXDXDXDXDXDX",
"DXDXDXDXDXDXDXDXDXDXDXDXDXDXV.8.C.|.5XfXcXNXCXCXAXSXSXSXAXAXCXVXvXgX8X.X`.m.v.DXh d DXDXDXDXDXDXDXDX",
"DXDXDXDXDXDXDXDXDXDXDXDXDXDX+.V.c.N.2X0XxXNXCXZXAXAXSXSXAXZXCXVXbXlXuXOX[.n.s.~ w a t DXDXDXDXDXDXDX",
"DXDXDXDXDXDXDXDXDXDXDXDXDXDXDXf.F.N.1X9XzXmXCXCXZXAXSXAXAXZXCXNXbXkXaX;XH.e.@.j x t a DXDXDXDXDXDXDX",
"DXDXDXDXDXDXDXDXDXDXDXDXDXDXDXh.f.P.+XpXkXvXMXCXZXZXAXZXZXCXVXmXcXdXtX=XQ.t.&.o.} DXDXDXDXDXDXDXDXDX",
"DXDXDXDXDXDXDXDXDXDXDXDXDXDXDXx.0.^.=XtXdXxXnXNXCXCXCXCXCXNXmXbXjXpX<X%XR.9.:.=.v DXDXt DXDXDXDXDXDX",
"DXDXDXDXDXDXDXDXDXDXDXDXDXDXDXE 4.W.&X,XtXjXcXmXmXNXVXVXNXmXbXjXpXeX=X(.f.$.-.=.| & 1 t DXDXDXDXDXDX",
"DXDXDXDXDXDXDXDXDXDXDXDXDXDXDX0 $.q.J.#X;XuXjXjXcXbXmXbXbXcXjXdXeX<X&XW.e.:.o.| s < 1 DXDXDXDXDXDXDX",
"DXDXDXDXDXDXDXDXDXDXDXDXDXDXDXs ..! a.Q.#X.XrXaXdXjXjXjXjXdXtXeX<X)./.r.,.O.6 % 4 7 1 DXDXDXDXDXDXDX",
"DXDXDXDXDXDXDXDXDXDXDXDXDXDXDX7 s K 1.B.K.{. X-XeXtXtXaXtXeX<X=X(.R.t.$.p # DXDX6 2 2 DXDXDXDXDXDXDX",
"DXDXDXDXDXDXDXDXDXDXDXDXDXDXDXDX7 7 +.4.q.^.~.M.#X<X:X=X*X$X&X(.S.] U g a DXDX2 < DX2 DXDXDXDXDXDXDX",
"DXDXDXDXDXDXDXDXDXDXDXDXDXDXDXDX2 7 . +.w.r.Y.D.!.(.I.P.j.C.U.0.Y @ > & = - DXDXDXDXDXDXDXDXDXDXDXDX",
"DXDXDXDXDXDXDXDXDXDXDXDXDXDXDXDXs 7 3 .  .%.! r.e.7.7.I ^ 6.<.#.n 0 5 , < = DXDXDXDX6 DXDXDXDXDXDXDX",
"DXDXDXDXDXDXDXDXDXDXDXDXDXDXDXDX5 4 2 & 5 7 0 m D Z S e A K 9 f } s 5 < & & , t DXDXDXDXDXDXDXDXDXDX",
"DXDXDXDXDXDXDXDXDXDXDXDXDXDXDXDXDX4 ; $ 7 s 2 3 q * f f f 7 - 7 f & 5 : + < 1 DXDXDXDXDXDXDXDXDXDXDX",
"DXDXDXDXDXDXDXDXDXDXDXDXDXDXDXDXDX2 : ; 6 s s , 1 8 - 5 : + + + O DX& o + DXDXDXDXDXDXDXDXDXDXDXDXDX",
"DXDXDXDXDXDXDXDXDXDXDXDXDXDXDXDXDXDXDXDX$   < 6 DXDXDXDXX DXDXDXDXDXDXDXDXDXDXDXDXDXDXDXDXDXDXDXDXDX",
"DXDXDXDXDXDXDXDXDXDXDXDXDXDXDXDXDXDXDXDXDXDXDXDXDXDXDXDXDXDXDXDXDXDXDXDXDXDXDXDXDXDXDXDXDXDXDXDXDXDX",
"DXDXDXDXDXDXDXDXDXDXDXDXDXDXDXDXDXDXDXDXDXDXDXDXDXDXDXDXDXDXDXDXDXDXDXDXDXDXDXDXDXDXDXDXDXDXDXDXDXDX",
"DXDXDXDXDXDXDXDXDXDXDXDXDXDXDXDXDXDXDXDXDXDXDXDXDXDXDXDXDXDXDXDXDXDXDXDXDXDXDXDXDXDXDXDXDXDXDXDXDXDX",
"DXDXDXDXDXDXDXDXDXDXDXDXDXDXDXDXDXDXDXDXDXDXDXDXDXDXDXDXDXDXDXDXDXDXDXDXDXDXDXDXDXDXDXDXDXDXDXDXDXDX"
};
