/* XPM */
static char *db07dc5cf4fd416ab63fc5a71e3c668c[] = {
/* columns rows colors chars-per-pixel */
"28 28 2 1 ",
"  c black",
". c None",
/* pixels */
".......................... .",
".........................   ",
"........................    ",
".............  ........    .",
"............   .......   ...",
"...........    ......    ...",
"..........     .....      ..",
"........       ....   ..  ..",
".......        ...    ..   .",
"..            ...     ..   .",
".            ...       ..  .",
"            ...    ..  ..   ",
"           ...    ...  ..   ",
"          ...    ....  ..   ",
"         ...    .....  ..   ",
"        ...    ......  ..   ",
"       ...     ......  ..   ",
".     ...      .....   ..  .",
".    ...       .....   .   .",
".......        ....   ..   .",
"......         ....  ...  ..",
".....          ........   ..",
"....    ..     .......   ...",
"...    .....   ........  ...",
"..    .......  .............",
".    .......................",
"    ........................",
".  ........................."
};
